      <svg
        version="1.1"
        id="Calque_1"
        xmlns="http://www.w3.org/2000/svg"
        x="0px"
        y="0px"
        viewBox="0 0 868.3912964 295.8260803"
        style={{ enableBackground: 'new 0 0 868.3912964 295.8260803' }}
      >
        <defs>
          <linearGradient id="BG1" x1="100%" x2="50%" y1="9.946%" y2="50%">
            <stop offset="0%" stopColor={PRIMARY_DARK} />
            <stop offset="100%" stopColor={PRIMARY_MAIN} />
          </linearGradient>
          <linearGradient id="BG2" x1="50%" x2="50%" y1="0%" y2="100%">
            <stop offset="0%" stopColor={PRIMARY_LIGHT} />
            <stop offset="100%" stopColor={PRIMARY_MAIN} />
          </linearGradient>
          <linearGradient id="BG3" x1="50%" x2="50%" y1="0%" y2="100%">
            <stop offset="0%" stopColor={PRIMARY_LIGHT} />
            <stop offset="100%" stopColor={PRIMARY_MAIN} />
          </linearGradient>
        </defs>
        <path
          style={{ fill: '#283C90', stroke: '#3A4A9A', strokeMiterlimit: 10 }}
          d="M230.2218933,248.8510284
	c-18.5311279,11.7157135-40.4925079,18.4968109-64.0376892,18.4968109
	c-66.2741623,0-119.9999924-53.7258453-119.9999924-120.0000153s53.7258301-120,119.9999924-120
	c23.5436554,0,45.5037079,6.7801914,64.0340881,18.4945087"
        />
        <g>
          <path
            style={{ fill: '#FFFFFF' }}
            d="M215.784668,226.8478241c-14.8242188,3.8183594-25.625,6.1201172-32.3999023,6.90625
		c-6.7768555,0.7861328-13.9453125,1.1796875-21.5063477,1.1796875c-31.1469727,0-53.7939453-8.2548828-67.9443359-24.7636719
		s-21.2255859-37.4150391-21.2255859-62.722168c0-16.5454102,3.105957-31.4257812,9.3212891-44.6411133
		c6.2133789-13.2133789,15.6279297-23.5839844,28.2446289-31.1083984
		c12.6147461-7.5244141,29.7045898-11.2866173,51.2670898-11.2866173c18.1933594,0,36.2358398,2.1337891,54.1308594,6.4013634
		v27.0654297c-15.0488281-5.1660156-25.8686523-8.2348633-32.4560547-9.2089844
		c-6.5893555-0.972168-12.878418-1.4599609-18.8671875-1.4599609c-19.4672852,0-33.4863281,6.2890625-42.0581055,18.8671875
		c-8.5737305,12.578125-12.8588867,27.8149414-12.8588867,45.7080078c0,19.5415039,5.0537109,35.0776367,15.1611328,46.6069336
		c10.1074219,11.5302734,24.331543,17.2949219,42.6757812,17.2949219c3.9672852,0,8.6088867-0.5615234,13.9257812-1.6845703
		v-54.6923828h34.5898438V226.8478241z"
          />
          <path
            style={{ fill: '#35398E' }}
            d="M299.722168,230.7784882V213.595871
		c-4.3720703,6.9726562-9.2421875,11.9257812-14.609375,14.8583984c-5.3681641,2.9326172-10.8466797,4.3994141-16.4355469,4.3994141
		c-7.1943359,0-13.378418-2.3105469-18.5522461-6.9316406c-5.1748047-4.6201172-7.7612305-11.9111328-7.7612305-21.8720703
		v-64.4145508h24.5703125v58.3549805c0,4.9804688,0.456543,8.3564453,1.3696289,10.1269531
		c0.9130859,1.7714844,2.1582031,3.1123047,3.7353516,4.0253906s3.3334961,1.3701172,5.2709961,1.3701172
		c3.375,0,6.8896484-1.1210938,10.5419922-3.3623047s7.6083984-6.6259766,11.8701172-13.15625v-57.3588867h24.5703125v91.1430664
		H299.722168z"
          />
          <path
            style={{ fill: '#35398E' }}
            d="M457.3203125,230.7784882v-17.265625
		c-3.1132812,6.4472656-7.1152344,11.2822266-12.0039062,14.5058594
		c-4.8901367,3.2226562-10.6958008,4.8349609-17.4155273,4.8349609c-11.034668,0-19.5844727-4.1367188-25.6494141-12.4101562
		c-6.0644531-8.2724609-9.0957031-19.1875-9.0957031-32.7460938c0-14.3320312,3.3862305-26.2724609,10.1606445-35.8183594
		s16.2255859-14.3188477,28.3549805-14.3188477c3.2773438,0,6.2827148,0.3461914,9.0141602,1.0375977
		c2.7314453,0.6923828,5.3535156,1.7573242,7.8671875,3.1958008c2.5117188,1.4394531,5.4355469,3.7910156,8.7675781,7.0561523
		V99.7086639h24.5703125v131.0698242H457.3203125z M457.3203125,163.4445038
		c-3.3574219-3.8671875-6.5253906-6.4921875-9.5039062-7.8740234c-2.9785156-1.3808594-6.0117188-2.0722656-9.0986328-2.0722656
		c-6.4990234,0-11.3603516,3.1914062-14.5820312,9.5742188c-3.2216797,6.3837891-4.8325195,13.8857422-4.8325195,22.5058594
		c0,8.5107422,1.5019531,15.2939453,4.5083008,20.3496094c3.0053711,5.0566406,7.3515625,7.5849609,13.0385742,7.5849609
		c3.6279297,0,7.215332-1.2841797,10.7631836-3.8544922c3.546875-2.5693359,6.7832031-5.9550781,9.7070312-10.1542969V163.4445038z"
          />
          <path
            style={{ fill: '#EC663B' }}
            d="M509.1845703,230.7784882V99.7086639h24.5703125v57.1098633
		c4.4267578-7.0273438,9.3242188-11.9951172,14.6923828-14.9003906c5.3671875-2.9052734,10.8183594-4.3579102,16.3525391-4.3579102
		c7.1933594,0,13.3769531,2.3110352,18.5517578,6.9311523c5.1738281,4.6210938,7.7617188,11.9121094,7.7617188,21.8730469
		v64.4140625h-24.5703125V172.423996c0-4.9804688-0.4570312-8.3554688-1.3691406-10.1269531
		c-0.9140625-1.7705078-2.1582031-3.1132812-3.7363281-4.0263672c-1.5761719-0.9130859-3.3339844-1.3691406-5.2705078-1.3691406
		c-3.3759766,0-6.8896484,1.1201172-10.5419922,3.3613281s-7.609375,6.6279297-11.8701172,13.1572266v57.3583984H509.1845703z"
          />
          <path
            style={{ fill: '#35398E' }}
            d="M672.9414062,230.7784882V213.595871
		c-4.3720703,6.9726562-9.2421875,11.9257812-14.609375,14.8583984c-5.3681641,2.9326172-10.8466797,4.3994141-16.4355469,4.3994141
		c-7.1943359,0-13.3789062-2.3105469-18.5527344-6.9316406c-5.1748047-4.6201172-7.7607422-11.9111328-7.7607422-21.8720703
		v-64.4145508h24.5703125v58.3549805c0,4.9804688,0.4560547,8.3564453,1.3701172,10.1269531
		c0.9121094,1.7714844,2.1582031,3.1123047,3.734375,4.0253906c1.578125,0.9130859,3.3339844,1.3701172,5.2714844,1.3701172
		c3.375,0,6.8896484-1.1210938,10.5419922-3.3623047s7.6083984-6.6259766,11.8701172-13.15625v-57.3588867h24.5703125v91.1430664
		H672.9414062z"
          />
          <path
            style={{ fill: '#35398E' }}
            d="M723.9755859,230.7784882V99.7086639h24.5703125v57.1928711
		c3.1103516-6.4462891,7.1201172-11.2817383,12.03125-14.5063477c4.9101562-3.2226562,10.6933594-4.8349609,17.3505859-4.8349609
		c11.0751953,0,19.640625,4.1503906,25.6972656,12.4516602c6.0576172,8.3007812,9.0859375,19.203125,9.0859375,32.7050781
		c0,14.2773438-3.3837891,26.203125-10.1494141,35.7763672c-6.7646484,9.5742188-16.2041016,14.3603516-28.3173828,14.3603516
		c-3.3818359,0-6.5195312-0.375-9.4121094-1.1210938c-2.8916016-0.7480469-5.6064453-1.8691406-8.1435547-3.3642578
		c-2.5371094-1.4941406-5.2519531-3.7646484-8.1425781-6.8105469l-4.5654297,9.2207031H723.9755859z M748.5458984,206.9689178
		c3.4033203,3.8691406,6.5917969,6.4941406,9.5644531,7.8759766c2.9726562,1.3808594,5.9980469,2.0712891,9.0800781,2.0712891
		c6.5380859,0,11.4013672-3.2470703,14.5898438-9.7392578c3.1875-6.4931641,4.7832031-13.9404297,4.7832031-22.3408203
		c0-8.6757812-1.5263672-15.5009766-4.5800781-20.4746094c-3.0527344-4.9726562-7.3896484-7.4599609-13.0097656-7.4599609
		c-3.5136719,0-7.0400391,1.2578125-10.5800781,3.7714844c-3.5390625,2.5146484-6.8212891,5.9267578-9.8476562,10.2373047
		V206.9689178z"
          />
        </g>
        <path
          style={{ display: 'none', fill: '#0AA7DF' }}
          d="M357.0316162,127.717392h-9.5703125v-15c0-8.2842712,6.7157288-15,15-15h9.5703125v15
	C372.0316162,121.0016632,365.3158875,127.717392,357.0316162,127.717392z"
        />
        <path
          style={{ fill: '#35398E' }}
          d="M357.0316162,128.3043518h-9.5703125V112.717392c0-8.2842712,6.7157288-15,15-15h9.5703125
	v15.5869598C372.0316162,121.588623,365.3158875,128.3043518,357.0316162,128.3043518z"
        />
        <rect x="347.4613037" y="139.6354218" style={{ fill: '#35398E' }} width="24.5703125" height="91.1430664" />
      </svg>